<?xml version="1.0" encoding="UTF-8" standalone="no"?>
<!-- Created with Inkscape (http://www.inkscape.org/) -->

<svg
   width="400"
   height="400"
   viewBox="0 0 105.83333 105.83333"
   version="1.1"
   id="svg5"
   inkscape:version="1.2.1 (8a69933317, 2022-10-28, custom)"
   sodipodi:docname="base.svg"
   xmlns:inkscape="http://www.inkscape.org/namespaces/inkscape"
   xmlns:sodipodi="http://sodipodi.sourceforge.net/DTD/sodipodi-0.dtd"
   xmlns="http://www.w3.org/2000/svg"
   xmlns:svg="http://www.w3.org/2000/svg">
  <sodipodi:namedview
     id="namedview7"
     pagecolor="#ffffff"
     bordercolor="#000000"
     borderopacity="0.25"
     inkscape:showpageshadow="2"
     inkscape:pageopacity="0.0"
     inkscape:pagecheckerboard="0"
     inkscape:deskcolor="#d1d1d1"
     inkscape:document-units="px"
     showgrid="true"
     inkscape:zoom="2.8284271"
     inkscape:cx="111.01576"
     inkscape:cy="189.50462"
     inkscape:window-width="1920"
     inkscape:window-height="1003"
     inkscape:window-x="1920"
     inkscape:window-y="0"
     inkscape:window-maximized="1"
     inkscape:current-layer="layer1">
    <inkscape:grid
       type="xygrid"
       id="grid2501"
       spacingx="1.3229166"
       spacingy="1.3229166"
       originx="0"
       originy="0" />
  </sodipodi:namedview>
  <defs
     id="defs2" />
  <g
     inkscape:label="Layer 1"
     inkscape:groupmode="layer"
     id="layer1">
    <path
       style="fill:#292929;fill-opacity:1;stroke:#292929;stroke-width:0.529167;stroke-linecap:round;stroke-linejoin:round;stroke-dasharray:none;stroke-opacity:1"
       d="m 59.531252,103.1875 34.395831,0 6.614587,-43.65625 H 5.2916667 L 11.90625,103.1875 Z"
       id="path5148"
       sodipodi:nodetypes="cccccc"
       inkscape:label="Basket" />
    <path
       id="path10336"
       style="display:inline;fill:#111111;fill-opacity:1;stroke:#111111;stroke-width:0;stroke-linecap:round;stroke-linejoin:round;stroke-dasharray:none;stroke-opacity:1"
       d="M 9.2604164 66.145831 L 14.552083 99.218747 L 18.520833 99.218747 L 13.229166 66.145831 L 9.2604164 66.145831 z M 18.520833 66.145831 L 22.489583 99.218747 L 26.458332 99.218747 L 22.489583 66.145831 L 18.520833 66.145831 z M 27.781249 66.145831 L 28.098542 70.114581 L 32.067292 70.114581 L 31.749999 66.145831 L 27.781249 66.145831 z M 37.041666 66.145831 L 37.200312 70.114581 L 41.169062 70.114581 L 41.010415 66.145831 L 37.041666 66.145831 z M 46.302082 66.145831 L 46.302082 70.114581 L 50.270832 70.114581 L 50.270832 66.145831 L 46.302082 66.145831 z M 55.562498 66.145831 L 55.562498 70.114581 L 59.531248 70.114581 L 59.531248 66.145831 L 55.562498 66.145831 z M 64.822915 66.145831 L 64.664268 70.114581 L 68.633018 70.114581 L 68.791664 66.145831 L 64.822915 66.145831 z M 74.083331 66.145831 L 73.766038 70.114581 L 77.734788 70.114581 L 78.052081 66.145831 L 74.083331 66.145831 z M 83.343747 66.145831 L 79.374997 99.218747 L 83.343747 99.218747 L 87.312497 66.145831 L 83.343747 66.145831 z M 92.604164 66.145831 L 87.312497 99.218747 L 91.281247 99.218747 L 96.572914 66.145831 L 92.604164 66.145831 z M 30.109789 95.249997 L 30.427082 99.218747 L 34.395832 99.218747 L 34.078539 95.249997 L 30.109789 95.249997 z M 38.205935 95.249997 L 38.364582 99.218747 L 42.333332 99.218747 L 42.174685 95.249997 L 38.205935 95.249997 z M 46.302082 95.249997 L 46.302082 99.218747 L 50.270832 99.218747 L 50.270832 95.249997 L 46.302082 95.249997 z M 55.562498 95.249997 L 55.562498 99.218747 L 59.531248 99.218747 L 59.531248 95.249997 L 55.562498 95.249997 z M 63.658645 95.249997 L 63.499998 99.218747 L 67.468748 99.218747 L 67.627395 95.249997 L 63.658645 95.249997 z M 71.754791 95.249997 L 71.437498 99.218747 L 75.406248 99.218747 L 75.723541 95.249997 L 71.754791 95.249997 z "
       inkscape:label="extra holes" />
    <path
       id="path15900"
       style="fill:#111111;fill-opacity:1;stroke:#111111;stroke-width:0;stroke-linecap:round;stroke-linejoin:round;stroke-dasharray:none;stroke-opacity:1"
       d="M 64.558331 72.760414 L 63.764581 92.604164 L 67.733331 92.604164 L 75.406248 92.604164 L 75.935414 92.604164 L 76.252708 88.635414 L 72.283958 88.635414 L 72.231248 88.635414 L 67.891978 88.635414 L 68.050624 84.666664 L 72.495831 84.666664 L 72.813124 80.697914 L 68.209788 80.697914 L 68.368435 76.729164 L 73.157289 76.729164 L 73.236871 76.729164 L 77.205621 76.729164 L 77.522914 72.760414 L 76.729164 72.760414 L 68.527081 72.760414 L 64.558331 72.760414 z "
       inkscape:label="E" />
    <path
       style="fill:#111111;fill-opacity:1;stroke:#111111;stroke-width:0;stroke-linecap:round;stroke-linejoin:round;stroke-dasharray:none;stroke-opacity:1"
       d="m 46.302082,72.760414 v 19.84375 h 3.96875 V 82.020831 l 5.291666,10.583333 h 3.96875 v -19.84375 h -3.96875 V 83.343747 L 50.270832,72.760414 Z"
       id="path15898"
       inkscape:label="N" />
    <path
       style="fill:#111111;fill-opacity:1;stroke:#111111;stroke-width:0;stroke-linecap:round;stroke-linejoin:round;stroke-dasharray:none;stroke-opacity:1"
       d="m 28.310416,72.760414 1.5875,19.84375 h 3.96875 4.233333 3.96875 l -0.79375,-19.84375 h -3.96875 -5.027083 z m 4.286043,3.96875 h 4.868436 l 0.476457,11.90625 h -4.392496 z"
       id="path15896"
       inkscape:label="O" />
    <path
       style="fill:#111111;fill-opacity:1;stroke:#292929;stroke-width:5.2916665;stroke-linecap:square;stroke-linejoin:round;stroke-dasharray:none;stroke-opacity:1"
       d="M 26.458333,58.208335 39.6875,26.458333"
       id="path10618"
       inkscape:label="LHandle" />
    <path
       style="fill:#111111;fill-opacity:1;stroke:#292929;stroke-width:5.2916665;stroke-linecap:square;stroke-linejoin:round;stroke-dasharray:none;stroke-opacity:1"
       d="M 79.375002,58.208335 66.145835,26.458333"
       id="path10620"
       inkscape:label="RHandle" />
    <path
       style="fill:#111111;fill-opacity:1;stroke:#233459;stroke-width:0;stroke-linecap:round;stroke-linejoin:round;stroke-dasharray:none;stroke-opacity:1"
       d="m 2.6458333,62.177083 0,-6.614583 H 103.1875 v 6.614583 z"
       id="path8930"
       sodipodi:nodetypes="ccccc"
       inkscape:label="Rim" />
  </g>
</svg>
